<svg xmlns="http://www.w3.org/2000/svg" xmlns:xlink="http://www.w3.org/1999/xlink" width="1421pt" height="568pt" viewBox="0.00 0.00 1421.00 568.00">
<g id="graph0" class="graph" transform="scale(1 1) rotate(0) translate(4 563.84)">
<title>flatcam</title>
<polygon fill="white" stroke="none" points="-4,4 -4,-563.84 1417.27,-563.84 1417.27,4 -4,4"/>
<!-- flatcam_entry -->
<g id="node1" class="node">
<title>flatcam_entry</title>
<polygon fill="#ffdede" stroke="black" points="114.8,-277.95 9.33,-277.95 9.33,-236.35 114.8,-236.35 114.8,-277.95"/>
<text xml:space="preserve" text-anchor="middle" x="62.07" y="-261.35" font-family="Helvetica,sans-Serif" font-size="14.00">flatcam (entry)</text>
<text xml:space="preserve" text-anchor="middle" x="62.07" y="-244.55" font-family="Helvetica,sans-Serif" font-size="14.00">flatcam.py</text>
</g>
<!-- appMain -->
<g id="node2" class="node">
<title>appMain</title>
<polygon fill="#ffe6b3" stroke="black" points="272.83,-277.95 161.13,-277.95 161.13,-236.35 272.83,-236.35 272.83,-277.95"/>
<text xml:space="preserve" text-anchor="middle" x="216.98" y="-261.35" font-family="Helvetica,sans-Serif" font-size="14.00">appMain</text>
<text xml:space="preserve" text-anchor="middle" x="216.98" y="-244.55" font-family="Helvetica,sans-Serif" font-size="14.00">(App controller)</text>
</g>
<!-- flatcam_entry&#45;&gt;appMain -->
<g id="edge1" class="edge">
<title>flatcam_entry-&gt;appMain</title>
<path fill="none" stroke="black" d="M115.26,-257.15C126.29,-257.15 138.08,-257.15 149.55,-257.15"/>
<polygon fill="black" stroke="black" points="149.38,-260.65 159.38,-257.15 149.38,-253.65 149.38,-260.65"/>
</g>
<!-- appGUI -->
<g id="node3" class="node">
<title>appGUI</title>
<polygon fill="#d5f2ff" stroke="black" points="809.32,-147.95 611.25,-147.95 611.25,-106.35 809.32,-106.35 809.32,-147.95"/>
<text xml:space="preserve" text-anchor="middle" x="710.28" y="-131.35" font-family="Helvetica,sans-Serif" font-size="14.00">appGUI</text>
<text xml:space="preserve" text-anchor="middle" x="710.28" y="-114.55" font-family="Helvetica,sans-Serif" font-size="14.00">(UI + PlotCanvas + MainGUI)</text>
</g>
<!-- appMain&#45;&gt;appGUI -->
<g id="edge2" class="edge">
<title>appMain-&gt;appGUI</title>
<path fill="none" stroke="black" d="M226.44,-236.23C237.38,-212.23 258.9,-173.91 290.83,-156.15 385.28,-103.62 510.85,-102.25 599.71,-110.37"/>
<polygon fill="black" stroke="black" points="599.11,-113.83 609.4,-111.32 599.79,-106.86 599.11,-113.83"/>
</g>
<!-- appObjects -->
<g id="node5" class="node">
<title>appObjects</title>
<polygon fill="#d6ffd6" stroke="black" points="1083.67,-297.95 896.49,-297.95 896.49,-256.35 1083.67,-256.35 1083.67,-297.95"/>
<text xml:space="preserve" text-anchor="middle" x="990.08" y="-281.35" font-family="Helvetica,sans-Serif" font-size="14.00">appObjects</text>
<text xml:space="preserve" text-anchor="middle" x="990.08" y="-264.55" font-family="Helvetica,sans-Serif" font-size="14.00">(object models &amp; collection)</text>
</g>
<!-- appMain&#45;&gt;appObjects -->
<g id="edge3" class="edge">
<title>appMain-&gt;appObjects</title>
<path fill="none" stroke="black" d="M273.15,-278.27C285.07,-281.95 297.74,-285.22 309.83,-287.15 511.28,-319.21 750.58,-303.38 884.62,-289.74"/>
<polygon fill="black" stroke="black" points="884.98,-293.22 894.57,-288.71 884.26,-286.26 884.98,-293.22"/>
</g>
<!-- appParsers -->
<g id="node6" class="node">
<title>appParsers</title>
<polygon fill="#fff0d6" stroke="black" points="1133.85,-493.95 846.32,-493.95 846.32,-452.35 1133.85,-452.35 1133.85,-493.95"/>
<text xml:space="preserve" text-anchor="middle" x="990.08" y="-477.35" font-family="Helvetica,sans-Serif" font-size="14.00">appParsers</text>
<text xml:space="preserve" text-anchor="middle" x="990.08" y="-460.55" font-family="Helvetica,sans-Serif" font-size="14.00">(ParseGerber / ParseExcellon / SVG / DXF)</text>
</g>
<!-- appMain&#45;&gt;appParsers -->
<g id="edge4" class="edge">
<title>appMain-&gt;appParsers</title>
<path fill="none" stroke="black" d="M224.4,-278.21C235.84,-312.07 263.06,-378.35 309.83,-413.15 475.65,-536.51 731.19,-519.52 876.97,-496.24"/>
<polygon fill="black" stroke="black" points="877.34,-499.72 886.65,-494.65 876.21,-492.81 877.34,-499.72"/>
</g>
<!-- appPlugins -->
<g id="node7" class="node">
<title>appPlugins</title>
<polygon fill="#f2d6ff" stroke="black" points="771.58,-364.95 648.99,-364.95 648.99,-323.35 771.58,-323.35 771.58,-364.95"/>
<text xml:space="preserve" text-anchor="middle" x="710.28" y="-348.35" font-family="Helvetica,sans-Serif" font-size="14.00">appPlugins</text>
<text xml:space="preserve" text-anchor="middle" x="710.28" y="-331.55" font-family="Helvetica,sans-Serif" font-size="14.00">(Tools &amp; Plugins)</text>
</g>
<!-- appMain&#45;&gt;appPlugins -->
<g id="edge5" class="edge">
<title>appMain-&gt;appPlugins</title>
<path fill="none" stroke="black" d="M235.37,-278.19C248.82,-292.82 268.83,-311.23 290.83,-320.15 405.11,-366.47 551.46,-361.98 637.34,-353.65"/>
<polygon fill="black" stroke="black" points="637.69,-357.14 647.28,-352.64 636.98,-350.17 637.69,-357.14"/>
</g>
<!-- appHandlers -->
<g id="node8" class="node">
<title>appHandlers</title>
<polygon fill="#e6e6ff" stroke="black" points="779.17,-246.95 641.4,-246.95 641.4,-205.35 779.17,-205.35 779.17,-246.95"/>
<text xml:space="preserve" text-anchor="middle" x="710.28" y="-230.35" font-family="Helvetica,sans-Serif" font-size="14.00">appHandlers</text>
<text xml:space="preserve" text-anchor="middle" x="710.28" y="-213.55" font-family="Helvetica,sans-Serif" font-size="14.00">(IO + Edit handlers)</text>
</g>
<!-- appMain&#45;&gt;appHandlers -->
<g id="edge6" class="edge">
<title>appMain-&gt;appHandlers</title>
<path fill="none" stroke="black" d="M273.15,-236.05C285.08,-232.36 297.74,-229.09 309.83,-227.15 419.7,-209.52 548.77,-213.59 629.8,-219.09"/>
<polygon fill="black" stroke="black" points="629.18,-222.56 639.4,-219.77 629.67,-215.57 629.18,-222.56"/>
</g>
<!-- camlib -->
<g id="node9" class="node">
<title>camlib</title>
<polygon fill="#e6fff2" stroke="black" points="1056.83,-220.95 923.34,-220.95 923.34,-179.35 1056.83,-179.35 1056.83,-220.95"/>
<text xml:space="preserve" text-anchor="middle" x="990.08" y="-204.35" font-family="Helvetica,sans-Serif" font-size="14.00">camlib</text>
<text xml:space="preserve" text-anchor="middle" x="990.08" y="-187.55" font-family="Helvetica,sans-Serif" font-size="14.00">(geometry helpers)</text>
</g>
<!-- appMain&#45;&gt;camlib -->
<g id="edge8" class="edge">
<title>appMain-&gt;camlib</title>
<path fill="none" stroke="black" d="M251.04,-235.87C267.94,-226.16 289.23,-215.62 309.83,-210.15 524.47,-153.12 587.25,-193.68 809.32,-196.15 842.82,-196.52 879.82,-197.28 911.5,-198.04"/>
<polygon fill="black" stroke="black" points="911.32,-201.54 921.41,-198.29 911.5,-194.54 911.32,-201.54"/>
</g>
<!-- defaults -->
<g id="node10" class="node">
<title>defaults</title>
<polygon fill="#f2f2d6" stroke="black" points="593.25,-452.95 509.56,-452.95 509.56,-411.35 593.25,-411.35 593.25,-452.95"/>
<text xml:space="preserve" text-anchor="middle" x="551.41" y="-436.35" font-family="Helvetica,sans-Serif" font-size="14.00">defaults</text>
<text xml:space="preserve" text-anchor="middle" x="551.41" y="-419.55" font-family="Helvetica,sans-Serif" font-size="14.00">(app prefs)</text>
</g>
<!-- appMain&#45;&gt;defaults -->
<g id="edge9" class="edge">
<title>appMain-&gt;defaults</title>
<path fill="none" stroke="black" d="M227.77,-278.18C239.54,-301.18 261.45,-337.53 290.83,-358.15 353.69,-402.24 442.41,-420.21 498.15,-427.43"/>
<polygon fill="black" stroke="black" points="497.67,-430.89 508.02,-428.63 498.51,-423.94 497.67,-430.89"/>
</g>
<!-- appCommon -->
<g id="node11" class="node">
<title>appCommon</title>
<polygon fill="#e6f2ff" stroke="black" points="1340.51,-384.95 1243.6,-384.95 1243.6,-343.35 1340.51,-343.35 1340.51,-384.95"/>
<text xml:space="preserve" text-anchor="middle" x="1292.06" y="-368.35" font-family="Helvetica,sans-Serif" font-size="14.00">appCommon</text>
<text xml:space="preserve" text-anchor="middle" x="1292.06" y="-351.55" font-family="Helvetica,sans-Serif" font-size="14.00">(shared utils)</text>
</g>
<!-- appMain&#45;&gt;appCommon -->
<g id="edge10" class="edge">
<title>appMain-&gt;appCommon</title>
<path fill="none" stroke="black" d="M220.46,-278.24C229.77,-346.53 269.08,-557.15 399.7,-557.15 399.7,-557.15 399.7,-557.15 991.08,-557.15 1055.09,-557.15 1077.19,-567.94 1133.85,-538.15 1197.13,-504.87 1247.57,-435.36 1273.01,-394.99"/>
<polygon fill="black" stroke="black" points="1275.86,-397.04 1278.13,-386.69 1269.9,-393.36 1275.86,-397.04"/>
</g>
<!-- appProcess -->
<g id="node12" class="node">
<title>appProcess</title>
<polygon fill="#ffdfe6" stroke="black" points="491.56,-277.95 309.83,-277.95 309.83,-236.35 491.56,-236.35 491.56,-277.95"/>
<text xml:space="preserve" text-anchor="middle" x="400.7" y="-261.35" font-family="Helvetica,sans-Serif" font-size="14.00">appProcess / WorkerStack</text>
<text xml:space="preserve" text-anchor="middle" x="400.7" y="-244.55" font-family="Helvetica,sans-Serif" font-size="14.00">(background processing)</text>
</g>
<!-- appMain&#45;&gt;appProcess -->
<g id="edge11" class="edge">
<title>appMain-&gt;appProcess</title>
<path fill="none" stroke="black" d="M273,-250.89C281.06,-250.65 289.57,-250.5 298.21,-250.44"/>
<polygon fill="black" stroke="black" points="298.11,-253.94 308.1,-250.4 298.09,-246.94 298.11,-253.94"/>
</g>
<!-- appEditors -->
<g id="node13" class="node">
<title>appEditors</title>
<polygon fill="#f6e6ff" stroke="black" points="1045.93,-72.95 934.23,-72.95 934.23,-31.35 1045.93,-31.35 1045.93,-72.95"/>
<text xml:space="preserve" text-anchor="middle" x="990.08" y="-56.35" font-family="Helvetica,sans-Serif" font-size="14.00">appEditors</text>
<text xml:space="preserve" text-anchor="middle" x="990.08" y="-39.55" font-family="Helvetica,sans-Serif" font-size="14.00">(editor widgets)</text>
</g>
<!-- appMain&#45;&gt;appEditors -->
<g id="edge7" class="edge">
<title>appMain-&gt;appEditors</title>
<path fill="none" stroke="black" d="M223.7,-236.01C234.28,-201.46 260.46,-133.69 309.83,-103.15 410.91,-40.62 772.05,-44.84 922.52,-49.54"/>
<polygon fill="black" stroke="black" points="922.22,-53.03 932.33,-49.86 922.45,-46.04 922.22,-53.03"/>
</g>
<!-- external -->
<g id="node16" class="node">
<title>external</title>
<polygon fill="#f7f7ff" stroke="black" points="1407.27,-240.95 1170.85,-240.95 1170.85,-199.35 1413.27,-199.35 1413.27,-234.95 1407.27,-240.95"/>
<polyline fill="none" stroke="black" points="1407.27,-240.95 1407.27,-234.95"/>
<polyline fill="none" stroke="black" points="1413.27,-234.95 1407.27,-234.95"/>
<text xml:space="preserve" text-anchor="middle" x="1292.06" y="-224.35" font-family="Helvetica,sans-Serif" font-size="14.00">External libs</text>
<text xml:space="preserve" text-anchor="middle" x="1292.06" y="-207.55" font-family="Helvetica,sans-Serif" font-size="14.00">(PyQt6, Shapely, VisPy, numpy, etc)</text>
</g>
<!-- appMain&#45;&gt;external -->
<g id="edge34" class="edge">
<title>appMain-&gt;external</title>
<path fill="none" stroke="black" d="M222.35,-235.93C236.26,-174.88 285.56,-3.15 399.7,-3.15 399.7,-3.15 399.7,-3.15 991.08,-3.15 1055.09,-3.15 1078.17,9.44 1133.85,-22.15 1202.77,-61.24 1252.66,-143.66 1276.09,-188.86"/>
<polygon fill="black" stroke="black" points="1272.89,-190.28 1280.53,-197.62 1279.13,-187.12 1272.89,-190.28"/>
</g>
<!-- appGUI&#45;&gt;appObjects -->
<g id="edge12" class="edge">
<title>appGUI-&gt;appObjects</title>
<path fill="none" stroke="black" d="M743.39,-148.2C762.91,-161.37 788.09,-179.04 809.32,-196.15 826.71,-210.16 827.05,-218.84 846.32,-230.15 860.99,-238.76 877.46,-246.03 893.85,-252.09"/>
<polygon fill="black" stroke="black" points="892.56,-255.35 903.16,-255.39 894.9,-248.75 892.56,-255.35"/>
</g>
<!-- appGUI&#45;&gt;appPlugins -->
<g id="edge14" class="edge">
<title>appGUI-&gt;appPlugins</title>
<path fill="none" stroke="black" d="M638.78,-148.36C612.87,-159.89 586.31,-177.08 571.36,-202.15 543.58,-248.7 602.28,-291.61 651.74,-317.81"/>
<polygon fill="black" stroke="black" points="649.96,-320.83 660.45,-322.29 653.16,-314.61 649.96,-320.83"/>
</g>
<!-- appGUI&#45;&gt;appCommon -->
<g id="edge15" class="edge">
<title>appGUI-&gt;appCommon</title>
<path fill="none" stroke="black" d="M809.8,-110.61C902.5,-100.71 1040.64,-101.17 1133.85,-170.15 1165.33,-193.45 1148,-218.32 1170.85,-250.15 1194.47,-283.07 1228.5,-314.28 1254.33,-335.69"/>
<polygon fill="black" stroke="black" points="1251.96,-338.28 1261.92,-341.89 1256.39,-332.85 1251.96,-338.28"/>
</g>
<!-- appGUI&#45;&gt;appEditors -->
<g id="edge13" class="edge">
<title>appGUI-&gt;appEditors</title>
<path fill="none" stroke="black" d="M774.85,-105.89C791.82,-100.49 810.2,-94.88 827.32,-90.15 858.51,-81.52 893.42,-73.16 922.81,-66.49"/>
<polygon fill="black" stroke="black" points="923.32,-69.96 932.3,-64.35 921.78,-63.13 923.32,-69.96"/>
</g>
<!-- appGUI&#45;&gt;external -->
<g id="edge35" class="edge">
<title>appGUI-&gt;external</title>
<path fill="none" stroke="black" d="M809.5,-131.39C895.71,-136.48 1024.1,-147.37 1133.85,-170.15 1163.68,-176.34 1195.86,-186.02 1223.29,-195.22"/>
<polygon fill="black" stroke="black" points="1221.92,-198.45 1232.52,-198.36 1224.18,-191.82 1221.92,-198.45"/>
</g>
<!-- n -->
<g id="node4" class="node">
<title>n</title>
<polygon fill="#f6f6f6" stroke="black" points="89.07,-332.15 35.07,-332.15 35.07,-296.15 89.07,-296.15 89.07,-332.15"/>
<text xml:space="preserve" text-anchor="middle" x="62.07" y="-309.95" font-family="Helvetica,sans-Serif" font-size="14.00">n</text>
</g>
<!-- appObjects&#45;&gt;camlib -->
<g id="edge16" class="edge">
<title>appObjects-&gt;camlib</title>
<path fill="none" stroke="black" d="M990.08,-256.17C990.08,-248.34 990.08,-240.5 990.08,-232.67"/>
<polygon fill="black" stroke="black" points="993.58,-232.71 990.08,-222.71 986.58,-232.71 993.58,-232.71"/>
</g>
<!-- appObjects&#45;&gt;appCommon -->
<g id="edge17" class="edge">
<title>appObjects-&gt;appCommon</title>
<path fill="none" stroke="black" d="M1064.46,-298.43C1116.12,-313.41 1184.34,-333.2 1232.38,-347.13"/>
<polygon fill="black" stroke="black" points="1231.19,-350.43 1241.77,-349.85 1233.14,-343.71 1231.19,-350.43"/>
</g>
<!-- appObjects&#45;&gt;external -->
<g id="edge38" class="edge">
<title>appObjects-&gt;external</title>
<path fill="none" stroke="black" d="M1083.94,-259.5C1110.52,-254.45 1139.92,-248.86 1168.02,-243.53"/>
<polygon fill="black" stroke="black" points="1168.47,-247 1177.64,-241.7 1167.16,-240.13 1168.47,-247"/>
</g>
<!-- appParsers&#45;&gt;appParsers -->
<g id="edge19" class="edge">
<title>appParsers-&gt;appParsers</title>
<path fill="none" stroke="black" stroke-dasharray="5,2" d="M960.13,-494.3C957.28,-503.76 967.26,-511.95 990.08,-511.95 1003.27,-511.95 1012.17,-509.21 1016.79,-505.07"/>
<polygon fill="black" stroke="black" points="1020.06,-506.33 1019.59,-495.75 1013.36,-504.31 1020.06,-506.33"/>
<text xml:space="preserve" text-anchor="middle" x="990.08" y="-516.15" font-family="Times,serif" font-size="14.00">internal imports</text>
</g>
<!-- appParsers&#45;&gt;camlib -->
<g id="edge18" class="edge">
<title>appParsers-&gt;camlib</title>
<path fill="none" stroke="black" d="M846.08,-453.88C838.96,-448.51 832.73,-442.01 827.82,-434.15 806.84,-400.61 806.84,-289.68 827.82,-256.15 845.7,-227.56 879.48,-213.3 911.6,-206.29"/>
<polygon fill="black" stroke="black" points="912.24,-209.73 921.38,-204.39 910.9,-202.86 912.24,-209.73"/>
</g>
<!-- appParsers&#45;&gt;external -->
<g id="edge36" class="edge">
<title>appParsers-&gt;external</title>
<path fill="none" stroke="black" d="M1122.02,-452.03C1126.19,-449.37 1130.15,-446.42 1133.85,-443.15 1172.13,-409.21 1143.26,-377.23 1170.85,-334.15 1192.49,-300.35 1226.26,-269.52 1252.5,-248.47"/>
<polygon fill="black" stroke="black" points="1254.55,-251.31 1260.24,-242.38 1250.22,-245.81 1254.55,-251.31"/>
</g>
<!-- appPlugins&#45;&gt;appGUI -->
<g id="edge21" class="edge">
<title>appPlugins-&gt;appGUI</title>
<path fill="none" stroke="black" d="M648.54,-326.41C583.79,-304.45 496,-263.13 531.46,-208.15 548.15,-182.25 575.36,-164.55 603.57,-152.47"/>
<polygon fill="black" stroke="black" points="604.61,-155.82 612.58,-148.84 602,-149.33 604.61,-155.82"/>
</g>
<!-- appPlugins&#45;&gt;appObjects -->
<g id="edge22" class="edge">
<title>appPlugins-&gt;appObjects</title>
<path fill="none" stroke="black" d="M771.9,-329.53C806.42,-321.2 850.5,-310.57 889.92,-301.06"/>
<polygon fill="black" stroke="black" points="890.53,-304.51 899.43,-298.77 888.89,-297.71 890.53,-304.51"/>
</g>
<!-- appPlugins&#45;&gt;appParsers -->
<g id="edge24" class="edge">
<title>appPlugins-&gt;appParsers</title>
<path fill="none" stroke="black" d="M733.74,-365.37C759.08,-388.12 802.52,-423.59 846.32,-443.15 850.3,-444.92 854.39,-446.6 858.57,-448.18"/>
<polygon fill="black" stroke="black" points="857.05,-451.35 867.65,-451.39 859.39,-444.76 857.05,-451.35"/>
</g>
<!-- appPlugins&#45;&gt;camlib -->
<g id="edge23" class="edge">
<title>appPlugins-&gt;camlib</title>
<path fill="none" stroke="black" d="M735.67,-323.09C761.63,-301.56 804.64,-268.34 846.32,-247.15 866.91,-236.67 890.34,-227.82 912.17,-220.72"/>
<polygon fill="black" stroke="black" points="913.16,-224.08 921.64,-217.73 911.05,-217.41 913.16,-224.08"/>
</g>
<!-- appPlugins&#45;&gt;appCommon -->
<g id="edge25" class="edge">
<title>appPlugins-&gt;appCommon</title>
<path fill="none" stroke="black" d="M771.9,-355.3C789.69,-358.1 809.23,-360.71 827.32,-362.15 972.3,-373.64 1143.57,-369.91 1231.85,-366.72"/>
<polygon fill="black" stroke="black" points="1231.85,-370.22 1241.71,-366.35 1231.59,-363.22 1231.85,-370.22"/>
</g>
<!-- appTool -->
<g id="node14" class="node">
<title>appTool</title>
<polygon fill="#f0f0f0" stroke="black" points="1057.22,-433.95 922.94,-433.95 922.94,-392.35 1057.22,-392.35 1057.22,-433.95"/>
<text xml:space="preserve" text-anchor="middle" x="990.08" y="-417.35" font-family="Helvetica,sans-Serif" font-size="14.00">appTool</text>
<text xml:space="preserve" text-anchor="middle" x="990.08" y="-400.55" font-family="Helvetica,sans-Serif" font-size="14.00">(Base plugin class)</text>
</g>
<!-- appPlugins&#45;&gt;appTool -->
<g id="edge20" class="edge">
<title>appPlugins-&gt;appTool</title>
<path fill="none" stroke="black" d="M762,-365.39C782.06,-373.15 805.5,-381.41 827.32,-387.15 854.4,-394.27 884.57,-399.76 911.45,-403.81"/>
<polygon fill="black" stroke="black" points="910.85,-407.26 921.25,-405.25 911.87,-400.34 910.85,-407.26"/>
</g>
<!-- appPlugins&#45;&gt;external -->
<g id="edge37" class="edge">
<title>appPlugins-&gt;external</title>
<path fill="none" stroke="black" d="M771.91,-346.63C855.34,-348.32 1009.36,-345.16 1133.85,-307.15 1177.05,-293.95 1221.69,-267.84 1252.31,-247.65"/>
<polygon fill="black" stroke="black" points="1254.12,-250.65 1260.48,-242.17 1250.22,-244.84 1254.12,-250.65"/>
</g>
<!-- appHandlers&#45;&gt;appObjects -->
<g id="edge27" class="edge">
<title>appHandlers-&gt;appObjects</title>
<path fill="none" stroke="black" d="M779.54,-233.06C795.59,-235.03 812.59,-237.4 828.32,-240.15 849.46,-243.83 872,-248.53 893.31,-253.33"/>
<polygon fill="black" stroke="black" points="892.32,-256.7 902.85,-255.51 893.88,-249.87 892.32,-256.7"/>
</g>
<!-- appHandlers&#45;&gt;appParsers -->
<g id="edge26" class="edge">
<title>appHandlers-&gt;appParsers</title>
<path fill="none" stroke="black" d="M742.96,-247.26C764.6,-263.23 792.33,-287.01 809.32,-314.15 840.96,-364.7 802.65,-402.52 846.32,-443.15 847.09,-443.86 847.87,-444.56 848.66,-445.25"/>
<polygon fill="black" stroke="black" points="846.33,-447.87 856.41,-451.13 850.56,-442.3 846.33,-447.87"/>
</g>
<!-- appHandlers&#45;&gt;camlib -->
<g id="edge28" class="edge">
<title>appHandlers-&gt;camlib</title>
<path fill="none" stroke="black" d="M779.39,-219.67C795.12,-218.18 811.8,-216.6 827.32,-215.15 854.84,-212.57 884.99,-209.76 911.73,-207.29"/>
<polygon fill="black" stroke="black" points="911.82,-210.79 921.46,-206.39 911.18,-203.82 911.82,-210.79"/>
</g>
<!-- camlib&#45;&gt;external -->
<g id="edge29" class="edge">
<title>camlib-&gt;external</title>
<path fill="none" stroke="black" d="M1057.28,-204.56C1087.25,-206.56 1123.79,-208.99 1159,-211.34"/>
<polygon fill="black" stroke="black" points="1158.65,-214.83 1168.86,-212 1159.12,-207.84 1158.65,-214.83"/>
</g>
<!-- defaults&#45;&gt;appParsers -->
<g id="edge30" class="edge">
<title>defaults-&gt;appParsers</title>
<path fill="none" stroke="black" d="M593.49,-436C648.4,-441.16 748.8,-450.59 834.7,-458.65"/>
<polygon fill="black" stroke="black" points="834.12,-462.11 844.41,-459.56 834.78,-455.14 834.12,-462.11"/>
</g>
<!-- appProcess&#45;&gt;appMain -->
<g id="edge31" class="edge">
<title>appProcess-&gt;appMain</title>
<path fill="none" stroke="black" d="M309.62,-263.9C301.12,-263.9 292.61,-263.83 284.39,-263.67"/>
<polygon fill="black" stroke="black" points="284.59,-260.18 274.51,-263.44 284.42,-267.18 284.59,-260.18"/>
</g>
<!-- appProcess&#45;&gt;appHandlers -->
<g id="edge32" class="edge">
<title>appProcess-&gt;appHandlers</title>
<path fill="none" stroke="black" d="M491.9,-248.05C535.58,-243.65 587.57,-238.41 629.75,-234.16"/>
<polygon fill="black" stroke="black" points="629.99,-237.66 639.58,-233.17 629.28,-230.69 629.99,-237.66"/>
</g>
<!-- appTool&#45;&gt;appCommon -->
<g id="edge33" class="edge">
<title>appTool-&gt;appCommon</title>
<path fill="none" stroke="black" d="M1057.65,-402.27C1109.86,-393.74 1181.83,-381.99 1232,-373.79"/>
<polygon fill="black" stroke="black" points="1232.51,-377.26 1241.81,-372.19 1231.38,-370.35 1232.51,-377.26"/>
</g>
<!-- cam_entry -->
<g id="node15" class="node">
<title>cam_entry</title>
<polygon fill="#e6fff2" stroke="black" points="124.13,-386.15 0,-386.15 0,-350.15 124.13,-350.15 124.13,-386.15"/>
<text xml:space="preserve" text-anchor="middle" x="62.07" y="-363.95" font-family="Helvetica,sans-Serif" font-size="14.00">camlib (low-level)</text>
</g>
</g>
</svg>